<?xml version="1.0" encoding="utf-8"?>
<!DOCTYPE svg PUBLIC "-//W3C//DTD SVG 20010904//EN" "http://www.w3.org/TR/2001/REC-SVG-20010904/DTD/svg10.dtd">
<svg version="1.0" xmlns="http://www.w3.org/2000/svg" width="1026pt" height="1026pt" viewBox="0 0 1026 1026" style="" preserveAspectRatio="xMidYMid meet">
<g fill="#1890FFFF" stroke="#1890FFFF">
<path d="M 499.500 2.882 C 491.427 5.222 476.639 11.838 464.698 18.452 C 459.307 21.438 440.857 30.942 423.698 39.571 C 406.539 48.200 392.050 55.597 391.500 56.008 C 390.950 56.420 377.450 63.418 361.500 71.559 C 335.326 84.919 323.392 91.274 311.508 98.180 C 309.313 99.456 302.739 105.225 296.899 111.000 C 282.390 125.349 279.640 130.865 279.219 146.461 C 279.056 152.533 278.718 158.463 278.469 159.640 C 277.615 163.683 279.360 163.802 237.500 156.841 C 211.276 152.480 194.144 152.326 182.583 156.345 C 178.228 157.860 157.528 167.927 136.583 178.717 C 115.637 189.507 90.260 202.584 80.189 207.776 C 60.196 218.084 53.614 223.285 49.611 231.936 L 47.500 236.500 47.579 364.500 C 47.668 508.341 47.171 498.696 55.211 512.500 C 60.161 520.998 73.364 534.192 82.202 539.471 C 85.666 541.541 91.811 544.419 95.857 545.867 C 99.904 547.315 103.247 548.950 103.287 549.500 C 103.328 550.050 97.806 554.406 91.018 559.179 C 77.204 568.892 59.182 586.093 54.211 594.306 C 52.483 597.163 50.329 602.650 49.425 606.500 C 48.520 610.350 47.133 615.975 46.341 619.000 C 45.134 623.612 44.958 636.692 45.249 700.000 C 45.553 765.967 45.807 776.423 47.260 782.811 C 50.085 795.230 58.132 806.838 68.491 813.439 C 71.246 815.194 96.900 828.422 125.500 842.834 C 182.593 871.604 186.134 873.000 202.008 873.000 C 211.245 873.000 247.486 870.621 262.500 869.029 C 271.643 868.059 279.064 867.623 282.275 867.866 C 284.497 868.034 285.306 870.172 288.465 884.222 C 292.639 902.784 297.490 913.007 307.668 924.688 C 318.476 937.091 317.253 936.412 410.500 981.764 C 466.569 1009.033 491.094 1020.659 497.288 1022.903 C 502.276 1024.711 505.329 1025.000 519.409 1025.000 L 535.742 1025.000 545.743 1020.566 C 551.243 1018.127 580.664 1003.663 611.122 988.424 C 641.580 973.184 676.625 955.917 689.000 950.051 C 717.511 936.537 727.463 930.377 737.118 920.271 C 749.784 907.014 753.867 897.479 754.406 879.896 C 754.569 874.614 755.056 869.719 755.489 869.017 C 756.313 867.684 761.981 867.873 785.000 870.002 C 790.775 870.536 805.226 871.265 817.114 871.622 C 836.413 872.202 839.359 872.075 844.614 870.440 C 847.851 869.432 875.529 856.136 906.120 840.891 C 958.065 815.006 962.176 812.767 968.338 807.003 C 972.517 803.094 975.956 798.754 977.718 795.165 L 980.500 789.500 980.807 677.000 C 981.141 554.587 980.979 549.877 976.057 539.328 C 968.011 522.081 950.006 506.163 933.250 501.482 C 929.348 500.392 927.000 499.205 927.000 498.320 C 927.000 496.623 930.557 493.182 938.000 487.678 C 950.458 478.466 967.006 460.230 973.428 448.637 C 980.903 435.143 980.424 442.592 980.776 334.500 C 980.999 266.460 980.766 236.188 979.996 233.107 C 978.157 225.743 970.362 215.472 962.500 210.052 C 955.476 205.210 858.376 155.614 850.500 152.846 C 843.083 150.239 828.400 149.361 818.000 150.903 C 813.875 151.515 800.375 153.347 788.000 154.974 C 775.625 156.602 762.575 158.374 759.000 158.914 C 746.903 160.738 743.504 160.999 742.259 160.195 C 741.576 159.754 740.295 156.267 739.412 152.446 C 734.484 131.125 729.401 116.688 723.370 106.887 C 720.140 101.635 710.505 91.505 703.926 86.443 C 695.888 80.258 546.636 5.738 536.862 3.029 C 527.289 0.376 508.401 0.302 499.500 2.882 M 599.824 312.250 C 600.420 314.588 601.189 319.200 601.534 322.500 C 602.601 332.707 634.927 490.873 638.933 505.488 C 641.377 514.402 640.549 515.824 634.652 512.840 C 632.368 511.684 629.196 509.820 627.603 508.697 C 623.742 505.975 612.217 499.607 591.000 488.474 C 581.375 483.424 567.875 476.249 561.000 472.530 C 539.650 460.980 517.508 449.248 485.067 432.294 C 483.180 431.307 481.449 429.922 481.222 429.215 C 480.996 428.508 493.617 415.008 509.269 399.215 C 524.922 383.422 541.727 366.140 546.614 360.812 C 567.445 338.099 596.486 308.000 597.568 308.000 C 598.213 308.000 599.228 309.913 599.824 312.250 M 400.000 557.088 C 411.879 563.905 424.878 570.872 467.000 593.000 C 477.175 598.346 494.050 607.222 504.500 612.725 C 514.950 618.228 527.684 624.667 532.798 627.033 C 539.926 630.330 542.026 631.747 541.798 633.104 C 541.634 634.077 530.700 645.884 517.500 659.342 C 495.391 681.883 465.057 713.573 438.378 742.000 C 432.442 748.325 427.001 753.861 426.288 754.302 C 424.113 755.648 423.088 751.957 419.955 731.500 C 419.281 727.100 415.839 709.550 412.307 692.500 C 408.774 675.450 405.035 656.939 403.998 651.364 C 402.961 645.789 401.211 637.239 400.108 632.364 C 399.005 627.489 396.490 615.625 394.518 606.000 C 392.546 596.375 389.148 580.355 386.966 570.399 C 384.785 560.444 383.000 551.508 383.000 550.541 C 383.000 547.878 385.887 548.990 400.000 557.088 M 395.000 273.897 C 395.000 274.391 389.237 279.745 382.194 285.796 C 369.929 296.331 344.359 322.286 332.733 336.000 C 321.472 349.285 313.196 359.134 302.000 372.576 C 283.314 395.012 272.156 407.031 244.588 434.420 C 219.887 458.962 210.008 468.000 207.885 468.000 C 206.291 468.000 204.825 462.909 203.422 452.500 C 202.003 441.976 201.111 435.900 198.571 419.460 C 195.745 401.172 194.140 383.761 195.057 381.350 C 195.635 379.830 198.636 377.709 203.851 375.134 C 208.204 372.984 214.857 369.427 218.633 367.229 C 222.410 365.032 233.150 359.365 242.500 354.637 C 251.850 349.909 267.600 341.705 277.500 336.406 C 287.400 331.107 302.925 322.828 312.000 318.009 C 321.075 313.190 331.875 307.326 336.000 304.978 C 340.125 302.631 347.775 298.353 353.000 295.472 C 358.225 292.591 369.025 286.393 377.000 281.698 C 390.630 273.673 395.000 271.779 395.000 273.897 M 827.682 598.580 C 829.755 607.209 834.182 636.931 836.012 654.500 C 838.085 674.394 837.885 675.283 830.500 679.051 C 827.750 680.454 810.650 689.116 792.500 698.301 C 732.242 728.794 684.085 753.848 669.843 762.115 C 653.304 771.715 653.843 768.177 671.257 752.827 C 686.022 739.812 707.591 718.055 722.000 701.640 C 768.978 648.124 822.155 592.223 825.145 593.211 C 825.890 593.458 827.032 595.874 827.682 598.580 M 789.443 317.902 C 796.075 321.148 806.000 325.843 811.500 328.334 C 841.000 341.695 839.292 340.744 837.747 342.951 C 836.973 344.056 834.126 346.629 831.420 348.668 C 824.041 354.229 806.419 369.899 798.527 377.916 C 794.692 381.812 790.799 385.000 789.877 385.000 C 787.991 385.000 786.881 380.949 784.945 367.000 C 783.713 358.126 776.952 326.482 774.664 318.877 C 773.157 313.872 773.460 312.000 775.777 312.000 C 776.662 312.000 782.812 314.656 789.443 317.902 M 242.407 668.619 C 242.749 669.509 244.127 676.597 245.469 684.369 C 246.812 692.141 248.994 702.658 250.319 707.741 C 253.740 720.866 253.618 720.899 234.772 711.977 C 226.373 708.000 217.250 703.956 214.500 702.990 C 200.961 698.236 200.956 697.281 214.403 687.041 C 219.850 682.893 227.275 676.707 230.903 673.293 C 237.533 667.056 241.231 665.553 242.407 668.619 "/></g>
</svg>
